<svg xmlns="http://www.w3.org/2000/svg" width="24" height="24" viewBox="0 0 24 24">
  <g fill="#000000" transform="translate(12 12) scale(1.12) translate(-12 -12)">
    <rect x="7" y="6" width="2" height="4"/>
    <rect x="10" y="6" width="2" height="4"/>
    <rect x="13" y="6" width="2" height="4"/>
    <rect x="16" y="6" width="2" height="4"/>
    <rect x="6" y="9" width="12" height="9"/>
    <rect x="4" y="11" width="2" height="5"/>
  </g>
  <g fill="#ffffff">
    <rect x="7" y="6" width="2" height="4"/>
    <rect x="10" y="6" width="2" height="4"/>
    <rect x="13" y="6" width="2" height="4"/>
    <rect x="16" y="6" width="2" height="4"/>
    <rect x="6" y="9" width="12" height="9"/>
    <rect x="4" y="11" width="2" height="5"/>
  </g>
  <g fill="#000000">
    <rect x="9" y="9" width="1" height="3"/>
    <rect x="12" y="9" width="1" height="3"/>
    <rect x="15" y="9" width="1" height="3"/>
  </g>
</svg>
